# xmcd CD database file
#
# Track frame offsets:
#	187
#	18647
#	42080
#	65442
#	89960
#	110027
#	127140
#	146915
#	173132
#
# Disc length: 2629 seconds
#
# Revision: 0
# Processed by: cddbd v1.5.2PL0 Copyright (c) Steve Scherf et al.
# Submitted via: CDex 1.51
#
DISCID=8c0a4309
DTITLE=Sayama,Masahiro - Thrill Me
DYEAR=2008
DGENRE=Jazz
TTITLE0=Concerte
TTITLE1=Distant Thoughts
TTITLE2=Long Time No See
TTITLE3=Shift Down
TTITLE4=Basho
TTITLE5=Reminiscing
TTITLE6=Mademoiselle De Paris
TTITLE7=2 T.C.
TTITLE8=Everything Happens To Me
EXTD=YEAR: 2008
EXTT0=
EXTT1=
EXTT2=
EXTT3=
EXTT4=
EXTT5=
EXTT6=
EXTT7=
EXTT8=
PLAYORDER=
